<?xml version="1.0" standalone="no"?><!DOCTYPE svg PUBLIC "-//W3C//DTD SVG 1.1//EN" "http://www.w3.org/Graphics/SVG/1.1/DTD/svg11.dtd"><svg t="1633525013752" class="icon" viewBox="0 0 1024 1024" version="1.1" xmlns="http://www.w3.org/2000/svg" p-id="4298" xmlns:xlink="http://www.w3.org/1999/xlink" width="200" height="200"><defs><style type="text/css"></style></defs><path d="M832 126.528 192 126.528c-70.656 0-128 57.344-128 128l0 576c0 70.656 57.344 128 128 128l640 0c70.656 0 128-57.344 128-128l0-576C960 183.872 902.656 126.528 832 126.528zM896 830.528c0 35.392-28.608 64-64 64L192 894.528c-35.392 0-64-28.608-64-64l0-576c0-35.392 28.608-64 64-64l640 0c35.392 0 64 28.608 64 64L896 830.528zM512 254.528c-35.392 0-64 28.608-64 64l0 256c0 35.392 28.608 64 64 64s64-28.608 64-64l0-256C576 283.136 547.392 254.528 512 254.528zM512 702.528c-35.392 0-64 28.608-64 64s28.608 64 64 64 64-28.608 64-64S547.392 702.528 512 702.528z" p-id="4299" fill="#aaaaaa"></path></svg>